<svg xmlns="http://www.w3.org/2000/svg" width="1400" height="420" viewBox="0 0 1400 420" role="img" aria-labelledby="title desc">
  <title id="title">ELNLA project banner</title>
  <desc id="desc">A clean scientific banner for ELNLA, a LabArchives GOV backup and read-only notebook viewer.</desc>
  <defs>
    <linearGradient id="bg" x1="0" y1="0" x2="1" y2="1">
      <stop offset="0" stop-color="#162e51"/>
      <stop offset="0.56" stop-color="#005ea2"/>
      <stop offset="1" stop-color="#e5faff"/>
    </linearGradient>
    <filter id="softShadow" x="-20%" y="-20%" width="140%" height="140%">
      <feDropShadow dx="0" dy="10" stdDeviation="12" flood-color="#162e51" flood-opacity="0.22"/>
    </filter>
  </defs>

  <rect width="1400" height="420" fill="url(#bg)"/>
  <path d="M0 325 C190 275 320 344 503 290 C670 240 760 206 930 236 C1114 268 1245 205 1400 144 L1400 420 L0 420 Z" fill="#fbfcfd" opacity="0.94"/>
  <path d="M0 355 C180 310 352 368 548 320 C720 278 852 272 1028 300 C1172 323 1292 285 1400 245 L1400 420 L0 420 Z" fill="#ccecf2" opacity="0.75"/>

  <g transform="translate(92 78)">
    <text x="0" y="0" fill="#ffffff" font-family="Avenir Next, Inter, Segoe UI, Arial, sans-serif" font-size="92" font-weight="800" letter-spacing="0">ELNLA</text>
    <text x="4" y="55" fill="#ccecf2" font-family="Avenir Next, Inter, Segoe UI, Arial, sans-serif" font-size="30" font-weight="600">LabArchives GOV backup and read-only notebook viewer</text>
    <text x="4" y="112" fill="#f8fffc" font-family="Avenir Next, Inter, Segoe UI, Arial, sans-serif" font-size="23" font-weight="500">Owner-only full-size archives • Original attachment verification • Lab-ready offline review</text>
  </g>

  <g transform="translate(870 70)" filter="url(#softShadow)">
    <rect x="0" y="0" width="405" height="268" rx="22" fill="#ffffff"/>
    <rect x="24" y="28" width="357" height="42" rx="10" fill="#e5faff"/>
    <circle cx="50" cy="49" r="8" fill="#face00"/>
    <rect x="72" y="41" width="144" height="16" rx="8" fill="#1a4480"/>
    <rect x="24" y="95" width="104" height="134" rx="12" fill="#f1f3f6"/>
    <rect x="42" y="117" width="62" height="10" rx="5" fill="#005ea2"/>
    <rect x="42" y="143" width="72" height="10" rx="5" fill="#97d4ea"/>
    <rect x="42" y="169" width="55" height="10" rx="5" fill="#97d4ea"/>
    <rect x="150" y="95" width="231" height="134" rx="12" fill="#fbfcfd"/>
    <rect x="173" y="120" width="176" height="14" rx="7" fill="#005ea2"/>
    <rect x="173" y="152" width="142" height="10" rx="5" fill="#1a4480"/>
    <rect x="173" y="177" width="176" height="10" rx="5" fill="#97d4ea"/>
    <rect x="173" y="202" width="122" height="10" rx="5" fill="#97d4ea"/>
    <g transform="translate(300 178)">
      <circle cx="38" cy="38" r="34" fill="#fff5c2"/>
      <path d="M22 40 L34 52 L56 25" fill="none" stroke="#005ea2" stroke-width="8" stroke-linecap="round" stroke-linejoin="round"/>
    </g>
  </g>

  <g transform="translate(92 318)">
    <rect x="0" y="0" width="246" height="44" rx="22" fill="#ffffff" opacity="0.92"/>
    <text x="24" y="29" fill="#162e51" font-family="Avenir Next, Inter, Segoe UI, Arial, sans-serif" font-size="18" font-weight="700">macOS first</text>
    <rect x="270" y="0" width="292" height="44" rx="22" fill="#ffffff" opacity="0.92"/>
    <text x="294" y="29" fill="#162e51" font-family="Avenir Next, Inter, Segoe UI, Arial, sans-serif" font-size="18" font-weight="700">Windows and iPad path</text>
    <rect x="586" y="0" width="310" height="44" rx="22" fill="#ffffff" opacity="0.92"/>
    <text x="610" y="29" fill="#162e51" font-family="Avenir Next, Inter, Segoe UI, Arial, sans-serif" font-size="18" font-weight="700">NIH/NICHD owner-aware</text>
  </g>
</svg>
